<svg width="177" height="174" viewBox="0 0 177 174" fill="none" xmlns="http://www.w3.org/2000/svg">
<rect width="177" height="174" fill="#1E1E1E"/>
<g id="Desktop - 1" clip-path="url(#clip0_0_1)">
<rect width="1440" height="6406" transform="translate(-621 -3766)" fill="white"/>
<g id="Rectangle 15" filter="url(#filter0_d_0_1)">
<rect x="-126.403" y="77" width="430" height="405" rx="20" fill="white"/>
</g>
<g id="Ellipse 6" filter="url(#filter1_d_0_1)">
<ellipse cx="88.5973" cy="71" rx="48" ry="47" fill="#F0BB1F"/>
</g>
<g id="whh:world" clip-path="url(#clip1_0_1)">
<path id="Vector" d="M88.0973 92C85.1858 92 82.4003 91.4463 79.7408 90.3389C77.0813 89.2314 74.7928 87.7412 72.8751 85.8682C70.9575 83.9951 69.4318 81.7598 68.298 79.1621C67.1642 76.5645 66.5973 73.8438 66.5973 71C66.5973 68.1562 67.1642 65.4355 68.298 62.8379C69.4318 60.2402 70.9575 58.0049 72.8751 56.1318C74.7928 54.2588 77.0813 52.7686 79.7408 51.6611C82.4003 50.5537 85.1858 50 88.0973 50C91.0087 50 93.7942 50.5537 96.4537 51.6611C99.1132 52.7686 101.402 54.2588 103.319 56.1318C105.237 58.0049 106.763 60.2402 107.897 62.8379C109.03 65.4355 109.597 68.1562 109.597 71C109.597 73.8438 109.03 76.5645 107.897 79.1621C106.763 81.7598 105.237 83.9951 103.319 85.8682C101.402 87.7412 99.1132 89.2314 96.4537 90.3389C93.7942 91.4463 91.0087 92 88.0973 92ZM78.901 62.0176L76.8854 60.2949C76.5774 60.2949 76.2135 60.3291 75.7936 60.3975C75.3737 60.4658 74.9957 60.5 74.6598 60.5C74.6318 60.4727 74.3798 59.9668 73.9039 58.9824C70.8245 62.4551 69.2848 66.4609 69.2848 71C69.2848 71.082 69.2918 71.1914 69.3058 71.3281C69.3198 71.4648 69.3268 71.5605 69.3268 71.6152C69.4948 71.7793 69.9077 72.0869 70.5656 72.5381C71.2234 72.9893 71.6923 73.3516 71.9723 73.625H74.6598C74.7438 73.5703 74.8208 73.5293 74.8907 73.502C74.9607 73.4746 75.0377 73.4473 75.1217 73.4199C74.8418 73.1191 74.4288 72.6748 73.8829 72.0869C73.337 71.499 72.9241 71.0684 72.6442 70.7949C72.7561 70.166 72.9101 69.2158 73.1061 67.9443C73.302 66.6729 73.442 65.7227 73.526 65.0938C75.9336 64.1094 77.7252 63.3848 78.901 62.9199V62.0176ZM87.3414 55.332C86.9495 55.168 86.5856 55.0176 86.2496 54.8809C86.1656 54.6621 86.1097 54.498 86.0817 54.3887C85.9137 54.9082 85.6477 55.6875 85.2838 56.7266C85.3958 56.7539 85.5568 56.7812 85.7667 56.8086C85.9767 56.8359 86.1377 56.8633 86.2496 56.8906H87.3414V55.332ZM87.1735 74.6504C87.0335 74.7871 86.9355 74.8965 86.8795 74.9785C86.5436 75.5527 86.0677 76.4277 85.4518 77.6035C84.8359 78.7793 84.374 79.6543 84.066 80.2285C84.458 80.8027 85.0529 81.6777 85.8507 82.8535C86.6486 84.0293 87.2434 84.9043 87.6354 85.4785C91.2747 85.6973 94.0322 85.8613 95.9078 85.9707C95.9638 86.6543 96.1878 87.1191 96.5797 87.3652C99.1272 86.1074 101.283 84.3643 103.047 82.1357C104.81 79.9072 105.972 77.4121 106.532 74.6504C106 74.541 105.419 74.3906 104.789 74.1992C104.159 74.0078 103.704 73.8779 103.424 73.8096C103.144 73.7412 102.592 73.6729 101.766 73.6045C100.94 73.5361 100.079 73.584 99.1832 73.748C98.8473 73.7754 98.6303 73.5635 98.5323 73.1123C98.4344 72.6611 98.3854 72.1963 98.3854 71.7178C98.3854 71.2393 98.3294 70.9863 98.2174 70.959C97.6015 70.8496 96.3558 70.9521 94.4801 71.2666C92.6045 71.5811 91.3587 71.6836 90.7428 71.5742C90.3789 71.9023 89.1891 72.9277 87.1735 74.6504ZM89.651 54.1016C89.567 54.6484 89.42 55.4688 89.2101 56.5625C89.0001 57.6562 88.8392 58.4902 88.7272 59.0645C88.8671 59.0371 89.0981 59.0029 89.42 58.9619C89.742 58.9209 89.9729 58.9004 90.1129 58.9004C90.0289 58.8457 89.9309 58.791 89.819 58.7363C90.2389 58.5996 90.5468 58.4902 90.7428 58.4082C90.2669 56.4941 89.903 55.0586 89.651 54.1016ZM94.5221 53.7324C94.4661 54.0332 94.4381 54.457 94.4381 55.0039C94.4381 55.5508 94.2981 56.2754 94.0182 57.1777C94.0462 57.2324 94.1022 57.2871 94.1862 57.3418C94.7461 57.2871 95.6839 57.1914 96.9996 57.0547C96.9996 56.4805 97.2936 55.9062 97.8815 55.332C96.8177 54.7031 95.6979 54.1699 94.5221 53.7324ZM99.7711 56.6035C99.7151 56.7129 99.6171 56.8633 99.4772 57.0547C100.009 57.1367 100.359 57.2051 100.527 57.2598C100.191 56.959 99.9391 56.7402 99.7711 56.6035ZM100.905 57.5879C100.821 57.752 100.688 57.998 100.506 58.3262C100.324 58.6543 100.191 58.9004 100.107 59.0645C99.2952 59.0918 98.2034 59.1328 96.8317 59.1875L96.6637 57.793C96.6077 57.8203 96.5097 57.8545 96.3698 57.8955C96.2298 57.9365 96.1178 57.957 96.0338 57.957V59.9668C95.4459 60.0215 94.5431 60.1035 93.3253 60.2129C92.1075 60.3223 91.2047 60.4043 90.6168 60.459C90.4209 60.7324 90.2109 61.0332 89.9869 61.3613C90.7428 62.9473 91.3167 64.1367 91.7086 64.9297C91.1487 65.0664 90.0009 65.3672 88.2653 65.832V67.2266C88.2653 67.2812 88.2863 67.3633 88.3282 67.4727C88.3702 67.582 88.4052 67.6641 88.4332 67.7188C88.9091 67.9375 89.651 68.2656 90.6588 68.7031C91.6666 69.1406 92.4225 69.4824 92.9264 69.7285L93.8502 68.6211C93.8222 68.3477 93.7522 67.917 93.6403 67.3291C93.5283 66.7412 93.4443 66.2969 93.3883 65.9961C93.4723 65.9414 93.6053 65.8662 93.7872 65.7705C93.9692 65.6748 94.1022 65.5996 94.1862 65.5449C94.942 65.3262 95.5159 65.1758 95.9078 65.0938C96.2718 65.668 96.7827 66.4883 97.4406 67.5547C98.0984 68.6211 98.5114 69.291 98.6793 69.5645C98.9313 69.3457 99.2812 69.0107 99.7291 68.5596C100.177 68.1084 100.513 67.7734 100.737 67.5547C99.2252 66.5156 98.2314 65.8457 97.7555 65.5449C97.7835 65.3262 97.8395 65.0117 97.9235 64.6016H99.4772C101.045 65.9141 102.655 67.2539 104.306 68.6211C104.334 68.6211 104.362 68.6006 104.39 68.5596C104.418 68.5186 104.446 68.498 104.474 68.498C104.362 68.2793 103.998 67.6094 103.382 66.4883C103.382 66.4609 103.424 66.4062 103.508 66.3242L103.676 66.1602H105.398C105.426 66.1328 105.664 66.0098 106.112 65.791C105.16 62.6191 103.424 59.8848 100.905 57.5879Z" fill="white"/>
</g>
</g>
<defs>
<filter id="filter0_d_0_1" x="-186.403" y="27" width="550" height="525" filterUnits="userSpaceOnUse" color-interpolation-filters="sRGB">
<feFlood flood-opacity="0" result="BackgroundImageFix"/>
<feColorMatrix in="SourceAlpha" type="matrix" values="0 0 0 0 0 0 0 0 0 0 0 0 0 0 0 0 0 0 127 0" result="hardAlpha"/>
<feOffset dy="10"/>
<feGaussianBlur stdDeviation="30"/>
<feColorMatrix type="matrix" values="0 0 0 0 0.149156 0 0 0 0 0.175824 0 0 0 0 0.4625 0 0 0 0.08 0"/>
<feBlend mode="normal" in2="BackgroundImageFix" result="effect1_dropShadow_0_1"/>
<feBlend mode="normal" in="SourceGraphic" in2="effect1_dropShadow_0_1" result="shape"/>
</filter>
<filter id="filter1_d_0_1" x="0.59729" y="0" width="176" height="174" filterUnits="userSpaceOnUse" color-interpolation-filters="sRGB">
<feFlood flood-opacity="0" result="BackgroundImageFix"/>
<feColorMatrix in="SourceAlpha" type="matrix" values="0 0 0 0 0 0 0 0 0 0 0 0 0 0 0 0 0 0 127 0" result="hardAlpha"/>
<feOffset dy="16"/>
<feGaussianBlur stdDeviation="20"/>
<feColorMatrix type="matrix" values="0 0 0 0 0.146118 0 0 0 0 0.172389 0 0 0 0 0.441667 0 0 0 0.1 0"/>
<feBlend mode="normal" in2="BackgroundImageFix" result="effect1_dropShadow_0_1"/>
<feBlend mode="normal" in="SourceGraphic" in2="effect1_dropShadow_0_1" result="shape"/>
</filter>
<clipPath id="clip0_0_1">
<rect width="1440" height="6406" fill="white" transform="translate(-621 -3766)"/>
</clipPath>
<clipPath id="clip1_0_1">
<rect width="43" height="42" fill="white" transform="translate(66.5973 50)"/>
</clipPath>
</defs>
</svg>
